<?xml version="1.0" standalone="no"?>
<!DOCTYPE svg PUBLIC "-//W3C//DTD SVG 20010904//EN"
 "http://www.w3.org/TR/2001/REC-SVG-20010904/DTD/svg10.dtd">
<svg version="1.0" xmlns="http://www.w3.org/2000/svg"
 width="377.000000pt" height="370.000000pt" viewBox="0 0 377.000000 370.000000"
 preserveAspectRatio="xMidYMid meet">

<g transform="translate(0.000000,370.000000) scale(0.100000,-0.100000)"
fill="white" stroke="none">
<path d="M0 1850 l0 -1850 1885 0 1885 0 0 1850 0 1850 -1885 0 -1885 0 0
-1850z m2618 1521 c65 -29 134 -104 156 -168 13 -38 16 -96 16 -313 l0 -267
42 -16 c23 -9 42 -16 43 -14 1 1 19 28 39 60 20 32 40 57 44 55 46 -20 152
-85 152 -93 0 -5 -14 -35 -30 -65 l-31 -54 66 -65 65 -65 63 31 64 31 46 -81
46 -81 -61 -39 c-51 -32 -59 -41 -54 -60 4 -12 15 -52 24 -89 l17 -68 73 0 72
0 0 -100 0 -99 -71 -3 -71 -3 -19 -70 c-10 -38 -21 -79 -24 -90 -4 -16 6 -27
55 -57 l60 -37 -46 -78 c-25 -43 -47 -79 -49 -81 -1 -2 -29 12 -62 30 l-60 32
-67 -67 -67 -66 31 -54 c16 -29 30 -58 30 -63 0 -9 -143 -94 -157 -94 -4 0
-23 25 -41 55 -18 30 -39 55 -45 55 -7 0 -48 -11 -92 -23 l-80 -23 -3 -72 -3
-72 -94 0 -94 0 -3 71 -3 71 -80 24 c-44 13 -85 23 -92 24 -7 0 -27 -25 -45
-55 -18 -30 -36 -55 -41 -55 -7 0 -138 73 -156 87 -3 2 7 28 22 59 15 30 27
59 27 64 0 6 -28 38 -61 71 l-62 62 -63 -31 -63 -31 -46 80 c-26 45 -45 82
-43 83 2 1 23 15 48 31 l45 30 -396 5 -395 5 8 32 8 32 723 3 c717 3 722 3
762 25 51 27 79 57 104 113 20 44 21 62 21 680 l0 635 -24 50 c-27 58 -56 87
-111 112 -37 17 -97 18 -884 21 -945 3 -915 5 -985 -65 -65 -65 -70 -81 -74
-251 l-4 -154 47 37 c60 45 105 68 174 89 96 28 175 22 413 -35 l217 -53 35
19 c35 19 36 19 131 -4 79 -19 95 -26 91 -40 -3 -9 -29 -106 -57 -216 -28
-110 -53 -202 -54 -204 -2 -2 -47 7 -101 20 -90 22 -98 26 -112 56 -12 26 -25
35 -66 47 -28 8 -60 16 -71 18 -18 3 -35 -60 -211 -785 -105 -433 -193 -790
-196 -792 -5 -5 -297 70 -305 78 -2 3 90 362 207 799 l211 793 -35 32 c-33 30
-41 33 -101 33 -83 0 -119 -15 -173 -74 l-43 -46 3 -382 c3 -373 4 -384 25
-428 20 -40 21 -51 12 -85 l-11 -40 -24 30 c-13 17 -34 50 -47 75 -22 44 -22
54 -25 452 l-3 407 -35 7 c-19 3 -34 10 -34 14 0 4 15 27 34 52 l34 44 4 194
c3 126 10 207 18 230 21 56 65 114 109 143 86 57 71 56 1006 54 l860 -2 53
-24z m-89 -275 c16 -19 5 -39 -48 -91 l-41 -39 46 -47 c48 -49 55 -82 19 -87
-14 -2 -42 19 -87 65 l-67 68 69 73 c70 73 88 83 109 58z m-204 -266 c0 -25
-1 -25 -101 -28 -81 -2 -104 0 -114 13 -10 12 -10 18 0 30 10 13 33 15 114 13
100 -3 101 -3 101 -28z m-1219 -2177 c9 -46 24 -80 49 -113 l23 -32 26 38 c14
20 31 59 37 86 11 40 17 48 36 48 16 0 23 -6 23 -20 0 -34 -38 -122 -70 -161
-24 -31 -30 -47 -30 -88 0 -48 -2 -51 -25 -51 -23 0 -25 3 -25 50 0 41 -6 59
-34 97 -32 46 -66 127 -66 158 0 9 10 15 25 15 19 0 26 -7 31 -27z m444 -93
c0 -110 2 -121 22 -140 29 -27 64 -25 93 5 24 23 25 30 25 140 l0 115 26 0 26
0 -3 -129 c-4 -128 -4 -130 -33 -160 -54 -56 -149 -50 -187 13 -16 26 -19 50
-19 154 l0 122 25 0 25 0 0 -120z m522 13 l63 -108 3 108 3 107 29 0 30 0 -4
-67 c-2 -38 -4 -110 -5 -161 l-1 -93 -27 3 c-22 2 -38 22 -92 113 l-66 110 -3
-112 c-3 -113 -3 -113 -27 -113 l-25 0 0 160 0 160 30 0 c27 0 35 -9 92 -107z
m398 41 l0 -67 43 35 c23 19 46 49 52 66 7 26 14 32 37 32 15 0 28 -5 28 -10
0 -19 -37 -84 -59 -104 -12 -11 -21 -23 -21 -27 0 -4 25 -43 55 -87 30 -44 55
-83 55 -86 0 -3 -13 -6 -28 -6 -24 0 -36 11 -76 70 -27 39 -52 70 -57 70 -16
0 -29 -39 -29 -90 0 -50 -1 -51 -27 -48 l-28 3 -3 158 -3 157 31 0 30 0 0 -66z
m450 -95 l0 -160 -27 3 -28 3 -3 145 c-1 79 0 150 2 157 3 7 17 13 31 13 l25
0 0 -161z"/>
<path d="M900 2937 c-85 -20 -155 -64 -231 -146 -38 -41 -69 -78 -69 -83 0
-19 26 -5 70 36 59 55 108 70 214 64 l79 -5 41 -46 41 -45 199 -49 c197 -48
199 -48 221 -84 19 -29 32 -37 75 -47 29 -7 54 -11 55 -10 11 15 76 311 69
317 -5 5 -31 14 -57 20 -44 11 -51 10 -79 -10 l-30 -22 -222 58 c-241 64 -293
71 -376 52z m597 -129 c-2 -7 -13 -48 -23 -92 -16 -67 -34 -99 -49 -84 -3 3
27 138 40 176 2 6 12 12 21 12 9 0 14 -6 11 -12z"/>
<path d="M2790 2251 c0 -171 1 -180 25 -223 14 -25 27 -69 31 -103 4 -33 15
-76 26 -96 24 -44 141 -119 186 -119 41 0 79 46 88 105 11 75 -1 215 -24 278
-28 77 -102 187 -160 237 -41 35 -149 100 -166 100 -3 0 -6 -80 -6 -179z"/>
<path d="M2670 1671 l-85 -36 -191 -3 -191 -3 -12 -25 c-20 -44 -13 -66 38
-115 84 -81 236 -139 366 -139 192 0 438 140 409 233 -10 34 -33 56 -100 93
-79 44 -121 43 -234 -5z"/>
</g>
</svg>
